<svg xmlns="http://www.w3.org/2000/svg" xmlns:xlink="http://www.w3.org/1999/xlink" width="500" zoomAndPan="magnify" viewBox="0 0 375 374.999991" height="500" preserveAspectRatio="xMidYMid meet" version="1.0"><path fill="#ffffff" d="M 371.492188 187.5 C 371.492188 190.511719 371.417969 193.519531 371.269531 196.527344 C 371.121094 199.535156 370.898438 202.539062 370.605469 205.535156 C 370.308594 208.53125 369.941406 211.519531 369.5 214.496094 C 369.058594 217.476562 368.542969 220.441406 367.953125 223.394531 C 367.367188 226.347656 366.707031 229.285156 365.976562 232.207031 C 365.246094 235.125 364.441406 238.027344 363.566406 240.910156 C 362.695312 243.792969 361.75 246.648438 360.734375 249.484375 C 359.71875 252.320312 358.636719 255.128906 357.484375 257.910156 C 356.332031 260.691406 355.113281 263.445312 353.824219 266.164062 C 352.539062 268.886719 351.183594 271.578125 349.765625 274.230469 C 348.34375 276.886719 346.863281 279.507812 345.3125 282.089844 C 343.765625 284.671875 342.15625 287.214844 340.480469 289.71875 C 338.808594 292.222656 337.074219 294.683594 335.28125 297.101562 C 333.488281 299.519531 331.636719 301.894531 329.726562 304.222656 C 327.816406 306.550781 325.851562 308.828125 323.828125 311.058594 C 321.804688 313.292969 319.730469 315.472656 317.601562 317.601562 C 315.472656 319.730469 313.292969 321.804688 311.058594 323.828125 C 308.828125 325.851562 306.550781 327.816406 304.222656 329.726562 C 301.894531 331.636719 299.519531 333.488281 297.101562 335.28125 C 294.683594 337.074219 292.222656 338.808594 289.71875 340.480469 C 287.214844 342.15625 284.671875 343.765625 282.089844 345.3125 C 279.507812 346.863281 276.886719 348.34375 274.234375 349.765625 C 271.578125 351.183594 268.886719 352.539062 266.167969 353.824219 C 263.445312 355.113281 260.691406 356.332031 257.910156 357.484375 C 255.128906 358.636719 252.320312 359.71875 249.484375 360.734375 C 246.648438 361.75 243.792969 362.695312 240.910156 363.566406 C 238.027344 364.441406 235.125 365.246094 232.207031 365.976562 C 229.285156 366.707031 226.347656 367.367188 223.394531 367.953125 C 220.441406 368.542969 217.476562 369.058594 214.496094 369.5 C 211.519531 369.941406 208.53125 370.308594 205.535156 370.605469 C 202.539062 370.898438 199.535156 371.121094 196.527344 371.269531 C 193.519531 371.417969 190.511719 371.492188 187.5 371.492188 C 184.488281 371.492188 181.480469 371.417969 178.472656 371.269531 C 175.464844 371.121094 172.460938 370.898438 169.464844 370.605469 C 166.46875 370.308594 163.480469 369.941406 160.503906 369.5 C 157.523438 369.058594 154.558594 368.542969 151.605469 367.953125 C 148.652344 367.367188 145.714844 366.707031 142.792969 365.976562 C 139.875 365.246094 136.972656 364.441406 134.089844 363.566406 C 131.207031 362.695312 128.351562 361.75 125.515625 360.734375 C 122.679688 359.71875 119.871094 358.636719 117.089844 357.484375 C 114.308594 356.332031 111.554688 355.113281 108.835938 353.824219 C 106.113281 352.539062 103.421875 351.183594 100.765625 349.765625 C 98.113281 348.34375 95.492188 346.863281 92.910156 345.3125 C 90.328125 343.765625 87.785156 342.15625 85.28125 340.480469 C 82.777344 338.808594 80.316406 337.074219 77.898438 335.28125 C 75.476562 333.488281 73.105469 331.636719 70.777344 329.726562 C 68.449219 327.816406 66.171875 325.851562 63.941406 323.828125 C 61.707031 321.804688 59.527344 319.730469 57.398438 317.601562 C 55.269531 315.472656 53.195312 313.292969 51.171875 311.058594 C 49.148438 308.828125 47.183594 306.550781 45.273438 304.222656 C 43.363281 301.894531 41.511719 299.519531 39.71875 297.101562 C 37.921875 294.683594 36.191406 292.222656 34.519531 289.71875 C 32.84375 287.214844 31.234375 284.671875 29.6875 282.089844 C 28.136719 279.507812 26.65625 276.886719 25.234375 274.234375 C 23.816406 271.578125 22.460938 268.886719 21.175781 266.167969 C 19.886719 263.445312 18.667969 260.691406 17.515625 257.910156 C 16.363281 255.128906 15.28125 252.320312 14.265625 249.484375 C 13.25 246.648438 12.304688 243.792969 11.433594 240.910156 C 10.558594 238.027344 9.753906 235.125 9.023438 232.207031 C 8.292969 229.285156 7.632812 226.347656 7.046875 223.394531 C 6.457031 220.441406 5.941406 217.476562 5.5 214.496094 C 5.058594 211.519531 4.691406 208.53125 4.394531 205.535156 C 4.101562 202.539062 3.878906 199.535156 3.730469 196.527344 C 3.582031 193.519531 3.507812 190.511719 3.507812 187.5 C 3.507812 184.488281 3.582031 181.480469 3.730469 178.472656 C 3.878906 175.464844 4.101562 172.460938 4.394531 169.464844 C 4.691406 166.46875 5.058594 163.480469 5.5 160.503906 C 5.941406 157.523438 6.457031 154.558594 7.046875 151.605469 C 7.632812 148.652344 8.292969 145.714844 9.023438 142.792969 C 9.753906 139.875 10.558594 136.972656 11.433594 134.089844 C 12.304688 131.207031 13.25 128.351562 14.265625 125.515625 C 15.28125 122.679688 16.363281 119.871094 17.515625 117.089844 C 18.667969 114.308594 19.886719 111.554688 21.175781 108.832031 C 22.460938 106.113281 23.816406 103.421875 25.234375 100.765625 C 26.65625 98.113281 28.136719 95.492188 29.6875 92.910156 C 31.234375 90.328125 32.84375 87.785156 34.519531 85.28125 C 36.191406 82.777344 37.925781 80.316406 39.71875 77.898438 C 41.511719 75.476562 43.363281 73.105469 45.273438 70.777344 C 47.183594 68.449219 49.148438 66.171875 51.171875 63.941406 C 53.195312 61.707031 55.269531 59.527344 57.398438 57.398438 C 59.527344 55.269531 61.707031 53.195312 63.941406 51.171875 C 66.171875 49.148438 68.449219 47.183594 70.777344 45.273438 C 73.105469 43.363281 75.476562 41.511719 77.898438 39.71875 C 80.316406 37.921875 82.777344 36.191406 85.28125 34.519531 C 87.785156 32.84375 90.328125 31.234375 92.910156 29.6875 C 95.492188 28.136719 98.113281 26.65625 100.765625 25.234375 C 103.421875 23.816406 106.113281 22.460938 108.832031 21.175781 C 111.554688 19.886719 114.308594 18.667969 117.089844 17.515625 C 119.871094 16.363281 122.679688 15.28125 125.515625 14.265625 C 128.351562 13.25 131.207031 12.304688 134.089844 11.433594 C 136.972656 10.558594 139.875 9.753906 142.792969 9.023438 C 145.714844 8.292969 148.652344 7.632812 151.605469 7.046875 C 154.558594 6.457031 157.523438 5.941406 160.503906 5.5 C 163.480469 5.058594 166.46875 4.691406 169.464844 4.394531 C 172.460938 4.101562 175.464844 3.878906 178.472656 3.730469 C 181.480469 3.582031 184.488281 3.507812 187.5 3.507812 C 190.511719 3.507812 193.519531 3.582031 196.527344 3.730469 C 199.535156 3.878906 202.539062 4.101562 205.535156 4.394531 C 208.53125 4.691406 211.519531 5.058594 214.496094 5.5 C 217.476562 5.941406 220.441406 6.457031 223.394531 7.046875 C 226.347656 7.632812 229.285156 8.292969 232.207031 9.023438 C 235.125 9.753906 238.027344 10.558594 240.910156 11.433594 C 243.792969 12.304688 246.648438 13.25 249.484375 14.265625 C 252.320312 15.28125 255.128906 16.363281 257.910156 17.515625 C 260.691406 18.667969 263.445312 19.886719 266.164062 21.175781 C 268.886719 22.460938 271.578125 23.816406 274.230469 25.234375 C 276.886719 26.65625 279.507812 28.136719 282.089844 29.6875 C 284.671875 31.234375 287.214844 32.84375 289.71875 34.519531 C 292.222656 36.191406 294.683594 37.921875 297.101562 39.71875 C 299.519531 41.511719 301.894531 43.363281 304.222656 45.273438 C 306.550781 47.183594 308.828125 49.148438 311.058594 51.171875 C 313.292969 53.195312 315.472656 55.269531 317.601562 57.398438 C 319.730469 59.527344 321.804688 61.707031 323.828125 63.941406 C 325.851562 66.171875 327.816406 68.449219 329.726562 70.777344 C 331.636719 73.105469 333.488281 75.476562 335.28125 77.898438 C 337.074219 80.316406 338.808594 82.777344 340.480469 85.28125 C 342.15625 87.785156 343.765625 90.328125 345.3125 92.910156 C 346.863281 95.492188 348.34375 98.113281 349.765625 100.765625 C 351.183594 103.421875 352.539062 106.113281 353.824219 108.832031 C 355.113281 111.554688 356.332031 114.308594 357.484375 117.089844 C 358.636719 119.871094 359.71875 122.679688 360.734375 125.515625 C 361.75 128.351562 362.695312 131.207031 363.566406 134.089844 C 364.441406 136.972656 365.246094 139.875 365.976562 142.792969 C 366.707031 145.714844 367.367188 148.652344 367.953125 151.605469 C 368.542969 154.558594 369.058594 157.523438 369.5 160.503906 C 369.941406 163.480469 370.308594 166.46875 370.605469 169.464844 C 370.898438 172.460938 371.121094 175.464844 371.269531 178.472656 C 371.417969 181.480469 371.492188 184.488281 371.492188 187.5 Z M 371.492188 187.5 " fill-opacity="1" fill-rule="nonzero"/><path fill="#000000" d="M 187.5 0 C 83.984375 0 0 83.984375 0 187.5 C 0 291.015625 83.984375 375 187.5 375 C 291.015625 375 375 291.015625 375 187.5 C 375 83.984375 291.015625 0 187.5 0 Z M 187.5 7.035156 C 190.453125 7.035156 193.40625 7.109375 196.355469 7.25 C 199.304688 7.394531 202.25 7.613281 205.1875 7.902344 C 208.128906 8.191406 211.058594 8.550781 213.980469 8.984375 C 216.902344 9.414062 219.8125 9.917969 222.707031 10.496094 C 225.605469 11.070312 228.484375 11.71875 231.351562 12.433594 C 234.214844 13.152344 237.0625 13.9375 239.886719 14.792969 C 242.714844 15.652344 245.519531 16.578125 248.300781 17.570312 C 251.082031 18.566406 253.835938 19.628906 256.5625 20.757812 C 259.292969 21.886719 261.992188 23.082031 264.664062 24.347656 C 267.332031 25.609375 269.96875 26.9375 272.574219 28.328125 C 275.179688 29.71875 277.75 31.175781 280.28125 32.691406 C 282.816406 34.210938 285.3125 35.789062 287.765625 37.429688 C 290.222656 39.070312 292.636719 40.769531 295.007812 42.53125 C 297.382812 44.289062 299.710938 46.105469 301.992188 47.980469 C 304.277344 49.851562 306.511719 51.78125 308.699219 53.765625 C 310.890625 55.746094 313.027344 57.785156 315.117188 59.871094 C 317.203125 61.960938 319.242188 64.097656 321.222656 66.285156 C 323.207031 68.476562 325.136719 70.710938 327.007812 72.992188 C 328.882812 75.277344 330.699219 77.605469 332.460938 79.976562 C 334.21875 82.347656 335.917969 84.761719 337.558594 87.21875 C 339.199219 89.675781 340.78125 92.167969 342.296875 94.703125 C 343.816406 97.234375 345.273438 99.804688 346.664062 102.410156 C 348.054688 105.015625 349.382812 107.652344 350.644531 110.320312 C 351.910156 112.992188 353.105469 115.691406 354.234375 118.417969 C 355.363281 121.148438 356.425781 123.902344 357.421875 126.683594 C 358.417969 129.464844 359.34375 132.269531 360.199219 135.09375 C 361.058594 137.921875 361.84375 140.765625 362.5625 143.632812 C 363.277344 146.496094 363.925781 149.378906 364.5 152.273438 C 365.078125 155.171875 365.582031 158.082031 366.015625 161.003906 C 366.445312 163.921875 366.808594 166.855469 367.097656 169.792969 C 367.386719 172.734375 367.601562 175.675781 367.746094 178.628906 C 367.890625 181.578125 367.964844 184.527344 367.964844 187.480469 C 367.964844 190.4375 367.894531 193.386719 367.75 196.339844 C 367.605469 199.289062 367.390625 202.234375 367.101562 205.175781 C 366.8125 208.113281 366.453125 211.046875 366.019531 213.96875 C 365.589844 216.890625 365.085938 219.800781 364.511719 222.699219 C 363.933594 225.59375 363.289062 228.476562 362.574219 231.34375 C 361.855469 234.207031 361.070312 237.054688 360.210938 239.882812 C 359.355469 242.707031 358.429688 245.511719 357.4375 248.292969 C 356.441406 251.078125 355.378906 253.832031 354.25 256.5625 C 353.121094 259.292969 351.925781 261.992188 350.664062 264.660156 C 349.398438 267.332031 348.074219 269.972656 346.679688 272.578125 C 345.289062 275.183594 343.835938 277.75 342.316406 280.285156 C 340.796875 282.820312 339.21875 285.316406 337.578125 287.773438 C 335.9375 290.226562 334.238281 292.644531 332.476562 295.015625 C 330.71875 297.390625 328.902344 299.71875 327.027344 302 C 325.15625 304.285156 323.226562 306.519531 321.242188 308.710938 C 319.257812 310.898438 317.222656 313.039062 315.132812 315.128906 C 313.046875 317.214844 310.90625 319.253906 308.71875 321.238281 C 306.53125 323.222656 304.292969 325.148438 302.011719 327.023438 C 299.726562 328.898438 297.398438 330.714844 295.027344 332.476562 C 292.652344 334.234375 290.238281 335.933594 287.785156 337.578125 C 285.328125 339.21875 282.832031 340.796875 280.296875 342.316406 C 277.765625 343.835938 275.195312 345.289062 272.589844 346.683594 C 269.984375 348.074219 267.347656 349.402344 264.675781 350.664062 C 262.003906 351.929688 259.304688 353.125 256.578125 354.253906 C 253.847656 355.386719 251.09375 356.449219 248.308594 357.441406 C 245.527344 358.4375 242.726562 359.363281 239.898438 360.21875 C 237.070312 361.078125 234.226562 361.863281 231.359375 362.582031 C 228.492188 363.300781 225.613281 363.945312 222.714844 364.519531 C 219.816406 365.097656 216.90625 365.601562 213.984375 366.035156 C 211.0625 366.464844 208.132812 366.828125 205.191406 367.117188 C 202.253906 367.40625 199.308594 367.621094 196.355469 367.765625 C 193.40625 367.910156 190.453125 367.980469 187.5 367.980469 C 184.546875 367.980469 181.59375 367.910156 178.644531 367.765625 C 175.695312 367.621094 172.75 367.40625 169.808594 367.117188 C 166.867188 366.828125 163.9375 366.46875 161.015625 366.035156 C 158.09375 365.601562 155.183594 365.097656 152.289062 364.523438 C 149.390625 363.945312 146.507812 363.300781 143.644531 362.582031 C 140.777344 361.863281 137.933594 361.078125 135.105469 360.222656 C 132.277344 359.363281 129.472656 358.4375 126.691406 357.445312 C 123.910156 356.449219 121.15625 355.386719 118.425781 354.257812 C 115.699219 353.125 113 351.929688 110.328125 350.667969 C 107.65625 349.40625 105.019531 348.078125 102.414062 346.683594 C 99.808594 345.292969 97.242188 343.835938 94.707031 342.320312 C 92.171875 340.800781 89.679688 339.222656 87.222656 337.578125 C 84.765625 335.9375 82.351562 334.238281 79.980469 332.480469 C 77.605469 330.71875 75.277344 328.902344 72.996094 327.027344 C 70.710938 325.15625 68.476562 323.226562 66.289062 321.242188 C 64.097656 319.257812 61.960938 317.222656 59.871094 315.132812 C 57.78125 313.042969 55.746094 310.90625 53.761719 308.71875 C 51.78125 306.527344 49.851562 304.292969 47.976562 302.007812 C 46.105469 299.726562 44.289062 297.398438 42.527344 295.023438 C 40.769531 292.652344 39.070312 290.238281 37.429688 287.78125 C 35.789062 285.324219 34.207031 282.828125 32.691406 280.296875 C 31.171875 277.761719 29.714844 275.191406 28.324219 272.585938 C 26.933594 269.980469 25.605469 267.34375 24.34375 264.671875 C 23.082031 262.003906 21.882812 259.304688 20.753906 256.574219 C 19.625 253.84375 18.5625 251.089844 17.566406 248.308594 C 16.574219 245.527344 15.648438 242.722656 14.792969 239.894531 C 13.933594 237.070312 13.148438 234.222656 12.429688 231.355469 C 11.714844 228.492188 11.066406 225.609375 10.492188 222.710938 C 9.917969 219.816406 9.414062 216.90625 8.980469 213.984375 C 8.546875 211.0625 8.1875 208.132812 7.898438 205.191406 C 7.609375 202.25 7.394531 199.304688 7.25 196.355469 C 7.105469 193.40625 7.035156 190.453125 7.035156 187.5 C 7.035156 184.546875 7.109375 181.59375 7.25 178.644531 C 7.394531 175.695312 7.613281 172.75 7.902344 169.8125 C 8.191406 166.871094 8.550781 163.941406 8.984375 161.019531 C 9.414062 158.097656 9.917969 155.1875 10.496094 152.292969 C 11.070312 149.394531 11.71875 146.515625 12.433594 143.648438 C 13.152344 140.785156 13.9375 137.9375 14.792969 135.113281 C 15.652344 132.285156 16.578125 129.480469 17.570312 126.699219 C 18.566406 123.917969 19.628906 121.164062 20.757812 118.4375 C 21.886719 115.707031 23.082031 113.007812 24.347656 110.335938 C 25.609375 107.667969 26.9375 105.03125 28.328125 102.425781 C 29.71875 99.820312 31.175781 97.25 32.691406 94.71875 C 34.210938 92.183594 35.789062 89.6875 37.429688 87.234375 C 39.070312 84.777344 40.769531 82.363281 42.53125 79.992188 C 44.289062 77.617188 46.105469 75.289062 47.980469 73.007812 C 49.851562 70.722656 51.78125 68.488281 53.765625 66.300781 C 55.746094 64.109375 57.785156 61.972656 59.871094 59.882812 C 61.960938 57.796875 64.097656 55.757812 66.285156 53.777344 C 68.476562 51.792969 70.710938 49.863281 72.992188 47.992188 C 75.277344 46.117188 77.605469 44.300781 79.976562 42.539062 C 82.347656 40.78125 84.761719 39.082031 87.21875 37.441406 C 89.675781 35.800781 92.167969 34.21875 94.703125 32.703125 C 97.234375 31.183594 99.804688 29.726562 102.410156 28.335938 C 105.015625 26.945312 107.652344 25.617188 110.320312 24.355469 C 112.992188 23.089844 115.691406 21.894531 118.417969 20.765625 C 121.148438 19.632812 123.902344 18.574219 126.683594 17.578125 C 129.464844 16.582031 132.269531 15.65625 135.09375 14.800781 C 137.921875 13.941406 140.765625 13.15625 143.632812 12.4375 C 146.496094 11.722656 149.378906 11.074219 152.273438 10.5 C 155.171875 9.921875 158.082031 9.417969 161.003906 8.984375 C 163.921875 8.554688 166.855469 8.191406 169.792969 7.902344 C 172.734375 7.613281 175.675781 7.398438 178.628906 7.253906 C 181.578125 7.109375 184.527344 7.035156 187.480469 7.035156 Z M 187.5 7.035156 " fill-opacity="1" fill-rule="nonzero"/><path fill="#000000" d="M 278.289062 150.898438 C 256.894531 150.898438 245.710938 159.953125 245.710938 173.851562 C 245.710938 178.28125 248.457031 184.628906 253.085938 187.625 C 261.183594 192.871094 267.972656 193.652344 277.28125 195.917969 C 282.613281 197.230469 288.410156 198.738281 288.410156 202.140625 C 288.410156 204.976562 285.539062 207.085938 277.953125 207.085938 C 262.921875 207.085938 259.960938 199.164062 259.960938 199.164062 L 240.710938 206.234375 C 244.789062 219.191406 264.730469 223.640625 277.933594 223.640625 C 292.0625 223.640625 300.214844 220.628906 305.410156 215.664062 C 311.136719 210.207031 311.703125 204.925781 311.703125 199.90625 C 311.703125 195.476562 309.964844 189.589844 301.457031 184.664062 C 295.253906 181.101562 282.738281 178.902344 277.28125 177.75 C 275.222656 177.289062 268.613281 176.332031 268.613281 172.433594 C 268.613281 169.527344 272.742188 167.949219 278.289062 167.949219 C 289.246094 167.949219 291 175.359375 291 175.359375 L 310.320312 168.25 C 307.304688 154.691406 291.425781 150.898438 278.289062 150.898438 Z M 342.136719 151.234375 L 318.96875 159.742188 L 318.96875 220.894531 L 342.15625 220.894531 Z M 32.066406 152.511719 L 32.066406 220.878906 L 55.25 220.878906 L 55.25 208.132812 C 64.121094 205.242188 72.835938 201.9375 81.394531 198.222656 C 97.597656 190.851562 98.289062 181.613281 98.289062 173.941406 C 98.289062 164.421875 91.199219 152.511719 71.433594 152.511719 Z M 104.917969 152.511719 L 104.917969 220.878906 L 165.183594 220.878906 L 165.183594 204.039062 L 128.101562 204.039062 L 128.101562 194.980469 L 157.226562 194.980469 L 157.226562 178.160156 L 128.101562 178.160156 L 128.101562 169.296875 L 164.527344 169.296875 L 164.527344 152.492188 Z M 175.234375 152.511719 L 175.234375 220.878906 L 198.417969 220.878906 L 198.417969 208.132812 C 207.289062 205.242188 216.003906 201.9375 224.5625 198.222656 C 240.765625 190.851562 241.457031 181.613281 241.457031 173.941406 C 241.457031 164.421875 234.367188 152.511719 214.601562 152.511719 Z M 55.25 169.3125 L 66.84375 169.3125 C 70.742188 169.3125 73.984375 172.488281 73.984375 176.511719 C 73.984375 181.296875 72.144531 183.847656 65.175781 186.753906 L 55.25 190.691406 Z M 198.417969 169.3125 L 210.011719 169.3125 C 213.910156 169.3125 217.15625 172.488281 217.15625 176.511719 C 217.15625 181.296875 215.328125 183.847656 208.34375 186.753906 L 198.417969 190.691406 Z M 198.417969 169.3125 " fill-opacity="1" fill-rule="nonzero"/><path fill="#ff1400" d="M 187.5 19.570312 C 183.433594 19.574219 179.371094 19.722656 175.3125 20.023438 C 171.253906 20.320312 167.214844 20.765625 163.191406 21.359375 C 159.164062 21.949219 155.167969 22.6875 151.195312 23.570312 C 147.226562 24.453125 143.292969 25.480469 139.394531 26.648438 C 135.5 27.816406 131.648438 29.125 127.847656 30.574219 C 124.046875 32.019531 120.300781 33.605469 116.617188 35.324219 C 112.929688 37.046875 109.3125 38.898438 105.757812 40.882812 C 102.207031 42.863281 98.730469 44.972656 95.332031 47.210938 C 91.933594 49.445312 88.621094 51.800781 85.394531 54.277344 C 82.167969 56.753906 79.035156 59.34375 75.996094 62.050781 C 72.957031 64.753906 70.019531 67.5625 67.183594 70.480469 C 64.347656 73.398438 61.625 76.417969 59.007812 79.53125 C 56.394531 82.648438 53.894531 85.855469 51.511719 89.152344 C 49.128906 92.449219 46.867188 95.828125 44.730469 99.289062 C 42.59375 102.75 40.585938 106.285156 38.707031 109.894531 C 36.824219 113.5 35.078125 117.171875 33.464844 120.90625 C 34.066406 121.117188 66.824219 132.710938 99.902344 132.710938 C 151.570312 132.710938 213.519531 111.597656 280.273438 111.597656 C 314.078125 111.597656 339.089844 119.964844 341.640625 120.851562 C 340.023438 117.117188 338.277344 113.445312 336.394531 109.835938 C 334.511719 106.230469 332.5 102.695312 330.363281 99.234375 C 328.222656 95.769531 325.960938 92.390625 323.574219 89.09375 C 321.191406 85.796875 318.691406 82.589844 316.070312 79.472656 C 313.453125 76.359375 310.726562 73.34375 307.890625 70.425781 C 305.050781 67.507812 302.113281 64.695312 299.070312 61.992188 C 296.027344 59.289062 292.894531 56.699219 289.664062 54.222656 C 286.433594 51.75 283.117188 49.394531 279.71875 47.15625 C 276.316406 44.921875 272.839844 42.816406 269.285156 40.832031 C 265.730469 38.851562 262.109375 37 258.421875 35.28125 C 254.730469 33.5625 250.984375 31.980469 247.179688 30.535156 C 243.378906 29.089844 239.527344 27.78125 235.628906 26.617188 C 231.730469 25.449219 227.792969 24.425781 223.820312 23.546875 C 219.847656 22.664062 215.847656 21.929688 211.820312 21.339844 C 207.792969 20.75 203.75 20.308594 199.691406 20.011719 C 195.632812 19.71875 191.570312 19.570312 187.5 19.570312 Z M 187.5 19.570312 " fill-opacity="1" fill-rule="nonzero"/><path fill="#0e0e96" d="M 187.589844 355.464844 C 191.65625 355.464844 195.71875 355.3125 199.777344 355.015625 C 203.832031 354.71875 207.875 354.273438 211.898438 353.679688 C 215.925781 353.089844 219.921875 352.351562 223.894531 351.46875 C 227.867188 350.589844 231.800781 349.5625 235.695312 348.394531 C 239.59375 347.226562 243.441406 345.917969 247.246094 344.472656 C 251.046875 343.023438 254.789062 341.441406 258.476562 339.71875 C 262.164062 338 265.78125 336.148438 269.335938 334.164062 C 272.886719 332.183594 276.363281 330.074219 279.761719 327.839844 C 283.160156 325.601562 286.472656 323.246094 289.703125 320.769531 C 292.929688 318.292969 296.0625 315.703125 299.101562 313 C 302.140625 310.296875 305.078125 307.484375 307.914062 304.570312 C 310.75 301.652344 313.476562 298.636719 316.09375 295.519531 C 318.707031 292.402344 321.207031 289.199219 323.589844 285.902344 C 325.972656 282.605469 328.234375 279.222656 330.371094 275.761719 C 332.507812 272.300781 334.519531 268.765625 336.398438 265.160156 C 338.28125 261.554688 340.027344 257.882812 341.640625 254.148438 C 341.039062 253.917969 308.261719 242.324219 275.207031 242.324219 C 223.535156 242.324219 161.585938 263.453125 94.8125 263.453125 C 61.027344 263.453125 36.019531 255.085938 33.449219 254.199219 C 35.0625 257.9375 36.8125 261.605469 38.695312 265.214844 C 40.578125 268.820312 42.589844 272.355469 44.726562 275.816406 C 46.867188 279.28125 49.128906 282.660156 51.515625 285.957031 C 53.898438 289.253906 56.402344 292.457031 59.019531 295.574219 C 61.636719 298.6875 64.367188 301.707031 67.203125 304.621094 C 70.039062 307.539062 72.980469 310.347656 76.019531 313.050781 C 79.0625 315.753906 82.199219 318.34375 85.429688 320.820312 C 88.660156 323.296875 91.972656 325.648438 95.375 327.882812 C 98.777344 330.117188 102.253906 332.226562 105.808594 334.207031 C 109.363281 336.191406 112.984375 338.039062 116.671875 339.757812 C 120.359375 341.476562 124.105469 343.058594 127.910156 344.503906 C 131.714844 345.949219 135.566406 347.257812 139.464844 348.421875 C 143.363281 349.589844 147.296875 350.613281 151.269531 351.492188 C 155.242188 352.371094 159.242188 353.105469 163.269531 353.695312 C 167.296875 354.285156 171.339844 354.726562 175.398438 355.023438 C 179.457031 355.320312 183.519531 355.464844 187.589844 355.464844 Z M 187.589844 355.464844 " fill-opacity="1" fill-rule="nonzero"/></svg>